<svg width="59" height="59" viewBox="0 0 59 59" fill="none" xmlns="http://www.w3.org/2000/svg">
<g clip-path="url(#clip0_48_1256)">
<path d="M11.8973 40.6794L31.2772 7.52617C31.2772 7.52617 35.0095 2.60078 43.3299 7.00995C51.6503 11.4191 49.7568 16.9853 49.7568 16.9853L30.802 51.3952C30.802 51.3952 27.1629 55.4991 19.4687 51.5963C10.5203 47.0823 11.8973 40.6794 11.8973 40.6794Z" fill="#C5E9DA" stroke="#36B37E" stroke-width="0.289082" stroke-miterlimit="10"/>
<path d="M11.8977 40.6796C11.8977 40.6796 14.6593 35.9808 24.1288 40.7614C32.9982 45.2541 30.8024 51.3954 30.8024 51.3954C30.8024 51.3954 26.8329 55.3896 19.469 51.5965C12.1051 47.8034 11.8869 43.0892 11.8977 40.6796Z" fill="#36B37E"/>
<path d="M29.7257 10.1576C29.7257 10.1576 34.3966 13.1021 37.7343 21.0223C41.282 29.4221 40.2387 34.2638 40.2387 34.2638L44.0589 27.3515C44.0589 27.3515 44.7492 23.7485 40.454 14.9791C36.9548 7.81982 33.5969 5.81964 33.5969 5.81964L31.2668 7.56547L29.7257 10.1576Z" fill="#172B4D"/>
<path d="M22.9583 21.9099C22.9583 21.9099 27.1447 24.7669 30.1234 33.3951C33.102 42.0233 32.7091 47.9915 32.7091 47.9915L36.5293 41.0793C36.5293 41.0793 37.1285 35.526 33.7485 27.7638C30.5969 20.5707 26.1183 16.5137 26.1183 16.5137L23.6272 20.7559L22.9583 21.9099Z" fill="#36B37E"/>
<path d="M24.1285 40.7617C24.1285 40.7617 24.6438 31.6519 20.235 26.3862L16.7834 32.3179C16.7834 32.3179 17.8494 34.9737 17.3315 38.6442C17.3315 38.6442 21.5808 39.5288 24.1285 40.7617Z" fill="#172B4D"/>
<path d="M20.598 44.3023L22.1162 45.4286L28.9625 44.914C28.9625 44.914 27.0827 42.2941 24.1285 40.7619L20.7717 42.2326L20.598 44.3023Z" fill="white" stroke="#36B37E" stroke-width="0.289082" stroke-miterlimit="10"/>
<path d="M13.96 39.2211C13.96 39.2211 12.3018 39.6445 11.8726 40.6934L19.9391 46.0503C19.9391 46.0503 20.5615 44.122 20.8176 43.6404C21.0986 43.1443 21.5751 42.235 21.5751 42.235L19.3156 38.8997C19.3406 38.8852 16.6321 37.7786 13.96 39.2211Z" fill="white" stroke="#36B37E" stroke-width="0.289082" stroke-miterlimit="10"/>
<path d="M41.3866 6.12994C41.3866 6.12994 44.9544 10.9798 46.1679 16.9553C47.3041 22.508 46.4424 23.0389 46.4424 23.0389L49.7572 16.9859C49.7572 16.9859 50.5741 14.4113 48.5448 11.2435C46.5156 8.07563 41.3866 6.12994 41.3866 6.12994Z" fill="#36B37E"/>
<path d="M20.8426 43.6269C20.8426 43.6269 18.281 44.1044 17.4192 44.6353C16.5575 45.1663 16.2927 45.2858 16.2927 45.2858L18.4744 46.4629L19.9641 46.0368L20.8426 43.6269Z" fill="white" stroke="#36B37E" stroke-width="0.289082" stroke-miterlimit="10"/>
<path d="M22.1305 45.4531L21.7795 47.1579L26.7759 53.1523C26.7759 53.1523 27.3933 53.2966 29.4367 52.3839L30.284 51.828L23.2927 44.7487C23.3072 44.7738 22.2988 44.5882 22.1305 45.4531Z" fill="white" stroke="#36B37E" stroke-width="0.289082" stroke-miterlimit="10"/>
<path d="M22.1308 45.4528C22.1308 45.4528 26.16 47.6328 26.0772 47.5471C25.9943 47.4615 23.7994 44.1222 23.7994 44.1222C23.7994 44.1222 22.0861 44.2769 22.1308 45.4528Z" fill="white" stroke="#36B37E" stroke-width="0.289082" stroke-miterlimit="10"/>
</g>
<defs>
<clipPath id="clip0_48_1256">
<rect width="48.4212" height="38.5925" fill="white" transform="translate(0.56427 24.6904) rotate(-30)"/>
</clipPath>
</defs>
</svg>
