<svg width="54" height="94" viewBox="0 0 54 94" fill="none" xmlns="http://www.w3.org/2000/svg">
<g opacity="0.88">
<g clip-path="url(#clip0_48_1163)">
<path d="M42.2705 48.107L24.8648 75.7125L-9.19986 74.4679L8.33684 46.8424L42.2705 48.107Z" fill="#C5E9DA" stroke="#36B37E" stroke-width="0.474153" stroke-miterlimit="10" stroke-linejoin="round"/>
<path d="M8.33588 46.8416L-9.20083 74.4671L-22.7232 44.3872L-6.64018 17.6004L8.33588 46.8416Z" fill="white" stroke="#36B37E" stroke-width="0.474153" stroke-miterlimit="10" stroke-linejoin="round"/>
<path d="M8.33576 46.8423L19.437 32.0231L-6.6403 17.6012L8.33576 46.8423Z" fill="white" stroke="#36B37E" stroke-width="0.474153" stroke-miterlimit="10" stroke-linejoin="round"/>
<path d="M19.4375 32.0226L42.2699 48.1064L8.33624 46.8419L19.4375 32.0226Z" fill="white" stroke="#36B37E" stroke-width="0.474153" stroke-miterlimit="10" stroke-linejoin="round"/>
<path d="M-6.64023 17.6003L27.6373 19.5362L19.4371 32.0222L-6.64023 17.6003Z" fill="#C5E9DA" stroke="#36B37E" stroke-width="0.474153" stroke-miterlimit="10" stroke-linejoin="round"/>
<path d="M42.2699 48.1064L27.6377 19.5366L19.4375 32.0226L42.2699 48.1064Z" fill="white" stroke="#36B37E" stroke-width="0.474153" stroke-miterlimit="10" stroke-linejoin="round"/>
<path d="M13.9049 39.4217L10.5371 43.8772L13.9049 39.4217Z" fill="#644DF2"/>
<path d="M12.123 46.9736L10.5376 43.878L8.33604 46.8416L12.123 46.9736Z" fill="#36B37E"/>
<path d="M12.1227 46.9736L-4.98279 74.6137L0.866433 74.8194L17.8783 47.1803L12.1227 46.9736Z" fill="#36B37E"/>
<path d="M22.2096 47.3642L5.10404 75.0043L10.9533 75.2101L27.9651 47.5709L22.2096 47.3642Z" fill="#36B37E"/>
<path d="M22.2094 47.3643L16.3259 35.8767L13.9052 39.4234L17.8784 47.1813L22.2094 47.3643Z" fill="#36B37E"/>
<path d="M27.9648 47.5698L20.324 32.6508L31.9667 40.8592L35.5579 47.8711L27.9648 47.5698Z" fill="#36B37E"/>
<path d="M35.5582 47.8714L32.8791 51.8329L39.7599 52.1224L42.2698 48.1063L35.5582 47.8714Z" fill="#172B4D"/>
<path d="M25.566 51.436L23.1307 55.4139L30.6301 55.7162L33.1591 51.7373L25.566 51.436Z" fill="#172B4D"/>
<path d="M30.6305 55.7151L27.9513 59.6767L34.8321 59.9662L37.3612 55.9873L30.6305 55.7151Z" fill="#172B4D"/>
<path d="M20.1203 30.9661L19.4371 32.0222L24.1305 19.3078L27.6373 19.5362L20.1203 30.9661Z" fill="#172B4D"/>
<path d="M-12.7485 54.4858L-15.0089 49.4288L-11.9294 44.2264L-9.57534 49.2825L0.848266 32.2209C0.848266 32.2209 -5.64645 19.5398 -6.63976 17.6003C-7.63307 15.6608 -22.7419 44.3498 -22.7419 44.3498L-15.8852 59.5762L-12.7485 54.4858Z" fill="#172B4D"/>
</g>
</g>
<defs>
<clipPath id="clip0_48_1163">
<rect width="58.2472" height="66.5024" fill="white" transform="translate(50.1346 63.0039) rotate(152.88)"/>
</clipPath>
</defs>
</svg>
