<?xml version="1.0" encoding="utf-8"?>
<!-- Generator: Adobe Illustrator 25.3.0, SVG Export Plug-In . SVG Version: 6.00 Build 0)  -->
<svg version="1.1" id="Layer_1" xmlns="http://www.w3.org/2000/svg" xmlns:xlink="http://www.w3.org/1999/xlink" x="0px" y="0px"
	 viewBox="0 0 425 756" style="enable-background:new 0 0 425 756;" xml:space="preserve">
<style type="text/css">
	.st0{fill:#36B37E;}
</style>
<g>
	<path class="st0" d="M255.83,390.05c2.66-9.73,6.03-19.08,10.1-28.07c4.07-8.98,8.19-17.55,12.35-25.7
		c2.66-5.32,5.36-10.19,8.11-14.59c2.75-4.4,5.36-8.44,7.86-12.1c1.66-2.83,2.58-5.53,2.74-8.11c0.16-2.58-0.17-4.99-1-7.23
		c-0.83-2.25-1.91-4.24-3.24-5.99c-1.33-1.75-2.66-3.28-3.99-4.62c-1.83-1.66-3.78-2.58-5.86-2.74c-2.08-0.16-3.7-0.08-4.87,0.25
		c-8.32,1.5-16.55,5.11-24.7,10.85c-8.15,5.74-15.93,12.52-23.33,20.33c-7.4,7.82-14.31,16.18-20.71,25.07
		c-6.4,8.9-12.1,17.26-17.09,25.07c0.83-2.16,1.75-4.32,2.74-6.49c1-2.16,2.08-4.32,3.24-6.49c2.49-4.82,4.99-9.31,7.48-13.47
		c2.49-4.15,4.9-7.9,7.23-11.23h0.25c1.66-2.83,2.53-5.53,2.62-8.11c0.08-2.58-0.25-4.99-1-7.23c-0.75-2.25-1.83-4.24-3.24-5.99
		c-1.41-1.75-2.7-3.2-3.87-4.37c-1.83-1.66-3.83-2.58-5.99-2.74c-2.16-0.16-3.83-0.16-4.99,0c-10.81,2.16-20.96,6.99-30.44,14.47
		c-9.48,7.48-18.21,15.97-26.19,25.45c2.66-5.49,5.82-11.39,9.48-17.71c4.16-7.65,6.03-13.97,5.61-18.96
		c-0.42-4.99-1.83-8.98-4.24-11.98c-2.41-2.99-5.2-5.11-8.36-6.36c-3.16-1.25-5.41-2.03-6.74-2.37c-6.32-1.33-12.56-1.83-18.71-1.5
		c-6.16,0.34-12.47,1-18.96,2c-6.49,1-13.14,2.12-19.96,3.37c-6.82,1.25-14.06,2.04-21.7,2.37c-6.99,0.34-12.64-0.12-16.96-1.37
		c-4.33-1.25-7.9-2.78-10.73-4.62c-3.16-2-5.66-4.32-7.48-6.99c-0.34-0.83-0.75-1.58-1.25-2.25c-1-1.5-2.16-2.41-3.49-2.74
		c-1.33-0.33-2.66-0.21-3.99,0.37c-1.33,0.58-2.41,1.79-3.24,3.62c-0.83,2.16-1.33,4.24-1.5,6.24c-0.17,2-0.09,3.83,0.25,5.49
		c0.33,1.83,0.75,3.66,1.25,5.49c2.49,7.32,6.94,12.43,13.35,15.34c6.4,2.91,13.72,4.45,21.95,4.62c8.23,0.17,16.92-0.66,26.07-2.5
		c9.14-1.83,17.84-3.87,26.07-6.11c8.23-2.25,15.47-4.28,21.7-6.11c6.24-1.83,10.52-2.66,12.85-2.49c2.33,0.17,3.91,0.5,4.74,1
		c0.83,0.5,1.5,1.17,2,2c0.16,0.17,0.25,0.34,0.25,0.5c0,0.17,0.08,0.42,0.25,0.75c0.16,0.5,0.21,1.25,0.12,2.25
		c-0.09,1-0.54,2.16-1.37,3.49c-0.33,0.34-0.75,1-1.25,2c-0.5,1-1.04,2.08-1.62,3.24c-0.58,1.17-1.17,2.21-1.75,3.12
		c-0.58,0.92-0.96,1.54-1.12,1.87c-0.67,1.17-1.29,2.25-1.87,3.24c-0.58,1-1.12,1.91-1.62,2.74c-1.17,2.16-2.29,4.28-3.37,6.36
		c-1.08,2.08-1.96,3.87-2.62,5.36c-2.99,5.82-5.49,11.06-7.48,15.72c-6.15,12.64-11.27,24.41-15.34,35.3
		c-4.08,10.9-7.36,20.5-9.85,28.82c-2.99,9.65-5.32,18.46-6.99,26.44c-0.17,1.5-0.17,2.91,0,4.24c0.16,1.16,0.5,2.2,1,3.12
		c0.5,0.91,1.41,1.54,2.74,1.87c1.16,0.33,2.95,0.46,5.36,0.37c2.41-0.09,4.82-0.42,7.23-1c2.41-0.58,4.65-1.5,6.74-2.74
		c2.08-1.25,3.45-3.04,4.12-5.36c0.33-1,0.62-2.41,0.87-4.24c0.25-1.83,0.62-4.16,1.12-6.98c2.49-12.14,6.24-23.45,11.23-33.93
		c4.99-10.48,10.52-19.96,16.59-28.44c6.07-8.48,12.35-16.01,18.84-22.58c6.49-6.57,12.43-12.14,17.84-16.71
		c5.4-4.57,9.89-8.07,13.47-10.48c3.57-2.41,5.53-3.7,5.86-3.87c-1.17,2.16-2.74,5.03-4.74,8.61c-2,3.58-3.83,6.95-5.49,10.1
		c-1.33,2.49-3.24,6.45-5.74,11.85c-2.5,5.41-5.11,11.39-7.86,17.96c-2.74,6.57-5.24,13.39-7.48,20.46
		c-2.25,7.07-3.79,13.6-4.62,19.58c-1,6.82-1.08,13.56-0.25,20.21c0.83,6.65,3.41,12.64,7.73,17.96c1.66,2.16,3.74,4.24,6.24,6.24
		c1.33,0.83,2.58,1.54,3.74,2.12c1.16,0.58,2.41,1.04,3.74,1.37h0.5c2.16,0.33,3.95-0.34,5.36-2c1.41-1.66,1.79-3.58,1.12-5.74
		c-0.83-2.99-1.5-5.86-2-8.61c-0.5-2.74-0.92-5.53-1.25-8.36c0-7.65,2.12-16.01,6.36-25.07c4.24-9.06,9.64-18.17,16.22-27.32
		c6.57-9.14,13.68-18,21.33-26.57c7.65-8.56,14.84-16.22,21.58-22.95c6.74-6.74,12.43-12.14,17.09-16.22
		c4.65-4.07,7.32-6.19,7.98-6.36c-1.33,2.49-2.91,5.41-4.74,8.73c-1.83,3.33-3.49,6.57-4.99,9.73c-1.5,2.99-4.16,7.94-7.98,14.84
		c-3.83,6.9-7.86,14.89-12.1,23.95c-4.24,9.07-8.19,18.75-11.85,29.06c-3.66,10.31-6.07,20.21-7.23,29.69
		c-0.83,6.98-0.87,13.76-0.12,20.33c0.75,6.57,3.28,12.51,7.61,17.84c1.83,2.33,3.91,4.4,6.24,6.24c2.66,1.83,5.24,2.99,7.73,3.49
		c2.33,0.5,4.2-0.12,5.61-1.87c1.41-1.75,1.79-3.7,1.12-5.86c-2.83-10.81-3.95-21.42-3.37-31.81
		C251.54,409.84,253.17,399.78,255.83,390.05z"/>
	<path class="st0" d="M422.98,369.72c-0.17-1-0.5-1.91-1-2.74c-2-2.16-4.08-3.91-6.24-5.24c-2.16-1.33-3.99-2.33-5.49-2.99
		c-2.99-1.5-6.28-1.16-9.85,1c-3.58,2.16-7.23,5.36-10.98,9.6c-3.74,4.24-7.48,9.15-11.23,14.72c-3.74,5.57-7.2,11.02-10.35,16.34
		c0.83-2.33,1.66-4.65,2.49-6.98c0.83-2.33,1.66-4.57,2.5-6.74c0.33-1,0.79-2.25,1.37-3.74c0.58-1.5,1.2-2.91,1.87-4.24
		c0.66-1.33,1.37-2.87,2.12-4.62c0.75-1.75,1.29-2.78,1.62-3.12c0-0.16,0.04-0.29,0.12-0.37c0.08-0.08,0.12-0.21,0.12-0.37
		c1.16-2.16,1.75-4.07,1.75-5.74c0-0.66-0.09-1.25-0.25-1.75c-0.17-0.5-0.34-0.91-0.5-1.25c-0.34-0.5-0.59-0.83-0.75-1
		c-2-2.33-4.2-4.12-6.61-5.36c-2.41-1.25-4.28-2.03-5.61-2.37c-1-0.33-1.87-0.16-2.62,0.5c-0.75,0.67-1.29,1.33-1.62,2
		c-0.34,0.67-0.5,1.08-0.5,1.25c-0.17,0.17-0.25,0.34-0.25,0.5c-0.67,1.83-1.41,3.74-2.24,5.74c-0.83,1.83-1.71,3.95-2.62,6.36
		c-0.92,2.41-1.79,4.95-2.62,7.61c-0.34,0.67-0.54,1.29-0.62,1.87c-0.09,0.58-0.29,1.21-0.62,1.87c-0.5,1.5-1.12,3.33-1.87,5.49
		c-0.75,2.16-1.54,4.41-2.37,6.74c-0.64,2.16-1.3,4.51-1.98,7.05c-0.12,0.23-0.21,0.45-0.27,0.68c-1,1.83-2.29,4.2-3.87,7.11
		c-1.58,2.91-3.37,5.66-5.36,8.23c-2,2.58-4.03,4.74-6.11,6.49c-2.08,1.75-4.12,2.29-6.11,1.62c-1.66-0.5-2.54-1.83-2.62-3.99
		c-0.09-2.16,0.29-4.78,1.12-7.86c0.83-3.08,2-6.4,3.49-9.98c1.5-3.57,3.03-6.99,4.62-10.23c1.58-3.24,3.03-6.11,4.37-8.61
		c1.33-2.49,2.33-4.32,2.99-5.49c1-1.83,1.62-3.41,1.87-4.74c0.25-1.33,0.29-2.41,0.12-3.24c-0.17-1-0.58-1.83-1.25-2.5
		c-1.83-2.16-3.87-3.95-6.11-5.36c-2.25-1.41-4.12-2.45-5.61-3.12c-2.99-1.33-6.28-0.87-9.85,1.37c-3.58,2.25-7.28,5.53-11.1,9.85
		c-3.83,4.33-7.61,9.27-11.35,14.84c-3.74,5.57-7.2,11.1-10.35,16.59c3.33-10.14,6.57-19,9.73-26.57
		c3.16-7.57,5.49-13.01,6.99-16.34c3.99-8.65,8.06-16.42,12.22-23.33c4.15-6.9,8.02-12.89,11.6-17.96
		c3.57-5.07,6.69-9.23,9.35-12.47c2.66-3.24,4.4-5.61,5.24-7.11c1.16-2.16,1.54-4.4,1.12-6.74c-0.42-2.33-1.25-4.57-2.49-6.74
		c-1.25-2.16-2.7-4.07-4.37-5.74c-1.66-1.66-2.99-2.91-3.99-3.74c-1.17-0.83-2.29-1.08-3.37-0.75c-1.08,0.34-2.04,0.83-2.87,1.5
		c-1,0.67-2,1.58-2.99,2.74c-4.66,6.82-9.48,14.64-14.47,23.45c-4.33,7.48-9.02,16.51-14.1,27.07
		c-5.07,10.56-10.02,22.41-14.84,35.55c-1.83,4.33-3.91,9.73-6.24,16.22c-0.5,1.5-1.12,3.37-1.87,5.61
		c-0.75,2.25-1.46,4.53-2.12,6.86c-0.83,2.99-1.79,6.36-2.87,10.1c-1.08,3.74-2.04,7.61-2.87,11.6c-0.83,3.99-1.58,7.94-2.24,11.85
		c-0.66,3.91-1,7.44-1,10.6c0,0.16,0.04,0.29,0.12,0.37c0.09,0.08,0.12,0.21,0.12,0.37c1,1.33,2.54,2.78,4.62,4.37
		c2.08,1.58,5.03,2.53,8.86,2.87c0.33,0,0.79-0.09,1.37-0.25c0.58-0.17,0.96-0.75,1.12-1.75c3.82-10.65,7.98-20,12.47-28.07
		c4.49-8.06,8.73-14.84,12.72-20.33c4.65-6.49,9.31-12.06,13.97-16.71h0.25c-2.16,5.16-4.28,10.94-6.36,17.34
		c-2.08,6.4-3.58,12.64-4.49,18.71c-0.92,6.07-0.87,11.52,0.12,16.34c1,4.82,3.49,8.23,7.48,10.23c1.5,0.5,3.16,0.83,4.99,1
		c1.5,0.16,3.16,0.12,4.99-0.12c1.83-0.25,3.66-0.96,5.49-2.12c2.99-1.66,5.9-4.12,8.73-7.36c1.98-2.28,3.86-4.66,5.64-7.15
		c-0.6,3.51-0.99,6.77-1.15,9.76c-0.16,0.33-0.16,0.83,0,1.5c0,1.16,0.42,2.16,1.25,2.99c1.17,1.33,2.7,2.58,4.62,3.74
		c1.91,1.16,4.53,1.91,7.86,2.24c0.33,0,0.79-0.12,1.37-0.37c0.58-0.25,0.96-0.87,1.12-1.87v-0.75
		c3.82-10.48,7.98-19.71,12.47-27.69c4.49-7.98,8.65-14.63,12.47-19.96c4.49-6.32,9.06-11.81,13.72-16.47l0.5-0.25
		c-1,2.33-2,4.83-2.99,7.48c-1,2.66-2,5.41-2.99,8.23c0,0.5,0.08,1.21,0.25,2.12c0.16,0.92,0.91,1.71,2.25,2.37
		c0.83,0.34,2.08,0.83,3.74,1.5c1.66,0.67,3.32,1.25,4.99,1.75c1.66,0.5,3.24,0.75,4.74,0.75c1.5,0,2.49-0.5,2.99-1.5
		c2.16-4.99,4.37-9.64,6.61-13.97c2.25-4.32,3.87-7.23,4.87-8.73c1-1.83,1.58-3.41,1.75-4.74
		C423.14,371.63,423.14,370.55,422.98,369.72z"/>
</g>
</svg>
